HIERARCHY
ROOT Hips
{
	OFFSET 0.000000 0.000000 0.000000
	CHANNELS 6 Xposition Yposition Zposition Zrotation Yrotation Xrotation 
	JOINT LowerBack
	{
		OFFSET 0.000000 0.000000 0.000000
		CHANNELS 3 Zrotation Yrotation Xrotation
		JOINT Spine
		{
			OFFSET 0.028270 2.035590 -0.193380
			CHANNELS 3 Zrotation Yrotation Xrotation
			JOINT Spine1
			{
				OFFSET 0.056720 2.048850 -0.042750
				CHANNELS 3 Zrotation Yrotation Xrotation
				JOINT Neck
				{
					OFFSET 0.000000 0.000000 0.000000
					CHANNELS 3 Zrotation Yrotation Xrotation
					JOINT Neck1
					{
						OFFSET -0.054170 1.746240 0.172020
						CHANNELS 3 Zrotation Yrotation Xrotation
						JOINT Head
						{
							OFFSET 0.104070 1.761360 -0.123970
							CHANNELS 3 Zrotation Yrotation Xrotation
							End Site
							{
								OFFSET 0.000000 0.000000 0.000000
							}
						}
					}
				}
				JOINT LeftShoulder
				{
					OFFSET 0.000000 0.000000 0.000000
					CHANNELS 3 Zrotation Yrotation Xrotation
					JOINT LeftArm
					{
						OFFSET 3.362410 1.200890 -0.311210
						CHANNELS 3 Zrotation Yrotation Xrotation
						JOINT LeftForeArm
						{
							OFFSET 4.983000 -0.000000 -0.000000
							CHANNELS 3 Zrotation Yrotation Xrotation
							JOINT LeftHand
							{
								OFFSET 3.483560 -0.000000 -0.000000
								CHANNELS 3 Zrotation Yrotation Xrotation
								JOINT LeftFingerBase
								{
									OFFSET 0.000000 0.000000 0.000000
									CHANNELS 3 Zrotation Yrotation Xrotation
									JOINT LeftHandIndex1
									{
										OFFSET 0.715260 -0.000000 -0.000000
										CHANNELS 3 Zrotation Yrotation Xrotation
										End Site
										{
											OFFSET 0.000000 0.000000 0.000000
										}
									}
								}
								JOINT LThumb
								{
									OFFSET 0.000000 0.000000 0.000000
									CHANNELS 3 Zrotation Yrotation Xrotation
									End Site
									{
										OFFSET 0.000000 0.000000 0.000000
									}
								}
							}
						}
					}
				}
				JOINT RightShoulder
				{
					OFFSET 0.000000 0.000000 0.000000
					CHANNELS 3 Zrotation Yrotation Xrotation
					JOINT RightArm
					{
						OFFSET -3.136600 1.374050 -0.404650
						CHANNELS 3 Zrotation Yrotation Xrotation
						JOINT RightForeArm
						{
							OFFSET -5.241900 -0.000000 -0.000000
							CHANNELS 3 Zrotation Yrotation Xrotation
							JOINT RightHand
							{
								OFFSET -3.444170 -0.000000 -0.000000
								CHANNELS 3 Zrotation Yrotation Xrotation
								JOINT RightFingerBase
								{
									OFFSET 0.000000 0.000000 0.000000
									CHANNELS 3 Zrotation Yrotation Xrotation
									JOINT RightHandIndex1
									{
										OFFSET -0.622530 -0.000000 -0.000000
										CHANNELS 3 Zrotation Yrotation Xrotation
										End Site
										{
											OFFSET 0.000000 0.000000 0.000000
										}
									}
								}
								JOINT RThumb
								{
									OFFSET 0.000000 0.000000 0.000000
									CHANNELS 3 Zrotation Yrotation Xrotation
									End Site
									{
										OFFSET 0.000000 0.000000 0.000000
									}
								}
							}
						}
					}
				}
			}
		}
	}
}
}
MOTION
Frames: 10
Frame Time: 0.008333
14.821778 15.159891 1.990901 -35.151487 -87.804229 84.862575 0.180317 -1.586117 -1.810130 -0.363798 -1.625082 -3.605535 -4.416933 -1.540202 -1.568318 5.063746 -5.332841 -1.970937 -2.111285 -0.202779 1.078098 0.000000 0.000000 0.000000 12.457820 10.833728 -1.734101 -80.735741 -35.644732 5.817486 179.110639 -57.871329 179.684513 21.082754 -7.369979 -1.610729 -0.504262 1.078122 -0.000000 0.000000 0.000000 0.000000 0.000000 0.000000 0.000000 -4.430003 -5.110108 -2.950087 71.553825 37.946092 -3.518658 -178.099347 54.668741 179.731418 -18.415605 19.225169 -3.406275 0.279838 -1.217001 -0.000000 0.000000 0.000000 0.000000 0.000000 0.000000 0.000000 
14.665647 14.850659 1.962338 -27.640932 -87.808937 76.708313 0.006627 -1.595492 -1.498049 -0.427976 -1.622702 -3.593915 -4.525053 -1.533946 -1.846775 5.263499 -5.183056 -2.043438 -2.128255 -0.202784 1.056784 0.000000 0.000000 0.000000 12.382092 10.192359 -1.672016 -81.053844 -35.046286 5.543080 179.044450 -58.537873 179.686343 20.878757 -7.812993 -1.679186 -0.481627 1.086589 -0.000000 0.000000 0.000000 0.000000 0.000000 0.000000 0.000000 -4.248379 -4.743775 -2.850738 73.022618 36.693760 -3.017109 -178.043196 55.372511 179.733224 -17.781970 19.949582 -3.404602 0.245952 -1.229990 -0.000000 0.000000 0.000000 0.000000 0.000000 0.000000 0.000000 
14.519050 14.552951 1.932576 -21.075704 -87.746309 69.627065 -0.117526 -1.594152 -1.149650 -0.487635 -1.611493 -3.577582 -4.650701 -1.519399 -2.143368 5.461660 -5.021061 -2.127725 -2.154812 -0.203009 1.028192 0.000000 0.000000 0.000000 12.218809 9.479394 -1.584379 -81.158338 -34.510836 5.093934 178.985160 -59.405201 179.686707 20.858013 -8.197741 -1.749580 -0.463199 1.089311 -0.000000 0.000000 0.000000 0.000000 0.000000 0.000000 0.000000 -3.932950 -4.353390 -2.727428 74.434729 35.466489 -2.596765 -177.991134 56.251788 179.733547 -17.321737 20.739903 -3.439553 0.215505 -1.239957 -0.000000 0.000000 0.000000 0.000000 0.000000 0.000000 0.000000 
14.382342 14.271560 1.902099 -15.719547 -87.627539 63.896110 -0.186269 -1.585628 -0.760554 -0.541774 -1.595377 -3.554397 -4.790184 -1.500436 -2.451292 5.658241 -4.839886 -2.225745 -2.193197 -0.203560 0.991430 0.000000 0.000000 0.000000 11.949832 8.707696 -1.469137 -81.060540 -34.022503 4.493479 178.937991 -60.489539 179.685869 21.026688 -8.458973 -1.811615 -0.449511 1.084082 -0.000000 0.000000 0.000000 0.000000 0.000000 0.000000 0.000000 -3.464683 -3.936245 -2.578789 75.765790 34.260636 -2.252200 -177.947900 57.346495 179.732403 -17.071562 21.523135 -3.509833 0.189791 -1.244114 -0.000000 0.000000 0.000000 0.000000 0.000000 0.000000 0.000000 
14.255257 14.010692 1.871409 -11.571102 -87.473490 59.517429 -0.205463 -1.573040 -0.324095 -0.590772 -1.577209 -3.521208 -4.936881 -1.480155 -2.762267 5.853387 -4.631228 -2.339547 -2.244165 -0.204470 0.945744 0.000000 0.000000 0.000000 11.564160 7.898455 -1.325333 -80.781060 -33.563640 3.773261 178.906874 -61.806627 179.684299 21.375324 -8.537739 -1.853395 -0.440336 1.069265 -0.000000 0.000000 0.000000 0.000000 0.000000 0.000000 0.000000 -2.832757 -3.488767 -2.404652 76.987097 33.073585 -1.986066 -177.920294 58.697958 179.730030 -17.054649 22.230097 -3.613947 0.169601 -1.240058 -0.000000 0.000000 0.000000 0.000000 0.000000 0.000000 0.000000 
14.137150 13.773659 1.840915 -8.476941 -87.306919 56.334746 -0.186273 -1.558167 0.162964 -0.635244 -1.558092 -3.475269 -5.082142 -1.460147 -3.066739 6.046587 -4.387770 -2.471821 -2.306927 -0.205688 0.890438 0.000000 0.000000 0.000000 11.059025 7.078928 -1.153447 -80.349370 -33.117749 2.970917 178.894475 -63.371167 179.682638 21.875830 -8.381385 -1.860517 -0.434685 1.043881 -0.000000 0.000000 0.000000 0.000000 0.000000 0.000000 0.000000 -2.036729 -3.007774 -2.205770 78.068760 31.905292 -1.807418 -177.916413 60.349173 179.726889 -17.277744 22.787865 -3.745996 0.155154 -1.225788 -0.000000 0.000000 0.000000 0.000000 0.000000 0.000000 0.000000 
14.027093 13.562911 1.810972 -6.210357 -87.145866 54.108920 -0.141056 -1.543091 0.700614 -0.675301 -1.539229 -3.414081 -5.216009 -1.442199 -3.353986 6.235686 -4.105520 -2.625374 -2.379126 -0.207086 0.825085 0.000000 0.000000 0.000000 10.439605 6.280739 -0.955734 -79.801850 -32.674764 2.127137 178.902577 -65.193858 179.681673 22.479326 -7.943668 -1.815280 -0.430961 1.007691 -0.000000 0.000000 0.000000 0.000000 0.000000 0.000000 0.000000 -1.088905 -2.493325 -1.984229 78.983420 30.763937 -1.726979 -177.944839 62.344957 179.723639 -17.724867 23.118394 -3.891875 0.145989 -1.199880 -0.000000 0.000000 0.000000 0.000000 0.000000 0.000000 0.000000 
13.923688 13.379660 1.781865 -4.549826 -87.002295 52.605677 -0.081095 -1.529932 1.281580 -0.710589 -1.521976 -3.336347 -5.328747 -1.428176 -3.612388 6.417143 -3.785811 -2.802984 -2.457011 -0.208471 0.749523 0.000000 0.000000 0.000000 9.716833 5.535858 -0.735449 -79.176220 -32.233011 1.283345 178.932979 -67.283831 179.682300 23.116655 -7.187680 -1.698775 -0.427209 0.961208 -0.000000 0.000000 0.000000 0.000000 0.000000 0.000000 0.000000 -0.014255 -1.949730 -1.742783 79.710457 29.666036 -1.751014 -178.014003 64.726791 179.721122 -18.351931 23.134817 -4.025677 0.141044 -1.161650 -0.000000 0.000000 0.000000 0.000000 0.000000 0.000000 0.000000 
13.825466 13.224066 1.753774 -3.299700 -86.881835 51.614486 -0.016292 -1.520810 1.891036 -0.740536 -1.507935 -3.242389 -5.412121 -1.419987 -3.830780 6.586352 -3.435553 -3.006160 -2.535935 -0.209623 0.664234 0.000000 0.000000 0.000000 8.906147 4.871163 -0.496490 -78.508201 -31.798837 0.477865 178.987251 -69.646116 179.685436 23.701728 -6.090590 -1.494588 -0.421406 0.905708 -0.000000 0.000000 0.000000 0.000000 0.000000 0.000000 0.000000 1.151155 -1.385269 -1.484318 80.238414 28.636589 -1.876974 -178.131377 67.530055 179.720292 -19.082769 22.750562 -4.109391 0.138770 -1.111438 -0.000000 0.000000 0.000000 0.000000 0.000000 0.000000 0.000000 
13.730793 13.095143 1.726839 -2.282879 -86.785325 50.945678 0.044835 -1.517807 2.507120 -0.764696 -1.499001 -3.133609 -5.460449 -1.419500 -3.996874 6.739360 -3.076437 -3.237186 -2.611487 -0.210330 0.569633 0.000000 0.000000 0.000000 8.027936 4.308779 -0.243836 -77.828932 -31.384804 -0.254694 179.065936 -72.275071 179.691857 24.144083 -4.649816 -1.194404 -0.411951 0.843152 0.000000 0.000000 0.000000 0.000000 0.000000 0.000000 0.000000 2.368568 -0.822329 -1.211656 80.566381 27.719291 -2.079268 -178.303675 70.784720 179.722134 -19.813770 21.902215 -4.100502 0.137461 -1.050802 -0.000000 0.000000 0.000000 0.000000 0.000000 0.000000 0.000000 
